<svg xmlns="http://www.w3.org/2000/svg">

<symbol id="web-logo"  viewBox="0 0 24 24" fill="none" xmlns="http://www.w3.org/2000/svg">
<path opacity="0.5" d="M13 18V10V2" stroke="currentColor" stroke-width="1.5" stroke-linecap="round"/>
<circle cx="9" cy="18" r="4" stroke="currentColor" stroke-width="1.5"/>
<path d="M19 8C15.6863 8 13 5.31371 13 2" stroke="currentColor" stroke-width="1.5" stroke-linecap="round"/>
</symbol>

<symbol id="web-home" viewBox="0 0 24 24" fill="none" xmlns="http://www.w3.org/2000/svg">
<path fill-rule="evenodd" clip-rule="evenodd" d="M21.5315 11.5857L20.75 10.9605V21.25H22C22.4142 21.25 22.75 21.5858 22.75 22C22.75 22.4143 22.4142 22.75 22 22.75H2.00003C1.58581 22.75 1.25003 22.4143 1.25003 22C1.25003 21.5858 1.58581 21.25 2.00003 21.25H3.25003V10.9605L2.46855 11.5857C2.1451 11.8445 1.67313 11.792 1.41438 11.4686C1.15562 11.1451 1.20806 10.6731 1.53151 10.4144L9.65742 3.91366C11.027 2.818 12.9731 2.818 14.3426 3.91366L22.4685 10.4144C22.792 10.6731 22.8444 11.1451 22.5857 11.4686C22.3269 11.792 21.855 11.8445 21.5315 11.5857ZM12 6.75004C10.4812 6.75004 9.25003 7.98126 9.25003 9.50004C9.25003 11.0188 10.4812 12.25 12 12.25C13.5188 12.25 14.75 11.0188 14.75 9.50004C14.75 7.98126 13.5188 6.75004 12 6.75004ZM13.7459 13.3116C13.2871 13.25 12.7143 13.25 12.0494 13.25H11.9507C11.2858 13.25 10.7129 13.25 10.2542 13.3116C9.76255 13.3777 9.29128 13.5268 8.90904 13.9091C8.52679 14.2913 8.37773 14.7626 8.31163 15.2542C8.24996 15.7129 8.24999 16.2858 8.25003 16.9507L8.25003 21.25H9.75003H14.25H15.75L15.75 16.9507L15.75 16.8271C15.7498 16.2146 15.7462 15.6843 15.6884 15.2542C15.6223 14.7626 15.4733 14.2913 15.091 13.9091C14.7088 13.5268 14.2375 13.3777 13.7459 13.3116Z" fill="currentColor"/>
<g opacity="0.5">
<path fill-rule="evenodd" clip-rule="evenodd" d="M10.75 9.5C10.75 8.80964 11.3096 8.25 12 8.25C12.6904 8.25 13.25 8.80964 13.25 9.5C13.25 10.1904 12.6904 10.75 12 10.75C11.3096 10.75 10.75 10.1904 10.75 9.5Z" fill="currentColor"/>
<path fill-rule="evenodd" clip-rule="evenodd" d="M10.75 9.5C10.75 8.80964 11.3096 8.25 12 8.25C12.6904 8.25 13.25 8.80964 13.25 9.5C13.25 10.1904 12.6904 10.75 12 10.75C11.3096 10.75 10.75 10.1904 10.75 9.5Z" fill="currentColor"/>
</g>
<path opacity="0.5" d="M12.0494 13.25C12.7142 13.25 13.2871 13.2499 13.7458 13.3116C14.2375 13.3777 14.7087 13.5268 15.091 13.909C15.4732 14.2913 15.6223 14.7625 15.6884 15.2542C15.7462 15.6842 15.7498 16.2146 15.75 16.827L15.75 21.25H8.25L8.25 16.9506C8.24997 16.2858 8.24993 15.7129 8.31161 15.2542C8.37771 14.7625 8.52677 14.2913 8.90901 13.909C9.29126 13.5268 9.76252 13.3777 10.2542 13.3116C10.7129 13.2499 11.2858 13.25 11.9506 13.25H12.0494Z" fill="currentColor"/>
<path opacity="0.5" d="M16 3H18.5C18.7761 3 19 3.22386 19 3.5L19 7.63955L15.5 4.83955V3.5C15.5 3.22386 15.7239 3 16 3Z" fill="currentColor"/>
</symbol>
 
<symbol  id="web-library"
  xmlns="http://www.w3.org/2000/svg"
 
  viewBox="0 0 24 24"
  fill="none"
  stroke="currentColor"
  stroke-width="2"
  stroke-linecap="round"
  stroke-linejoin="round"
>
  <path d="M16 6l4 14" />
  <path d="M12 6v14" />
  <path d="M8 8v12" />
  <path d="M4 4v16" />
</symbol>

<symbol id="web-like" viewBox="0 0 24 24" fill="none" xmlns="http://www.w3.org/2000/svg">
<path fill-rule="evenodd" clip-rule="evenodd" d="M12 6.00019C10.2006 3.90317 7.19377 3.2551 4.93923 5.17534C2.68468 7.09558 2.36727 10.3061 4.13778 12.5772C5.60984 14.4654 10.0648 18.4479 11.5249 19.7369C11.6882 19.8811 11.7699 19.9532 11.8652 19.9815C11.9483 20.0062 12.0393 20.0062 12.1225 19.9815C12.2178 19.9532 12.2994 19.8811 12.4628 19.7369C13.9229 18.4479 18.3778 14.4654 19.8499 12.5772C21.6204 10.3061 21.3417 7.07538 19.0484 5.17534C16.7551 3.2753 13.7994 3.90317 12 6.00019Z" stroke="currentColor" stroke-width="2" stroke-linecap="round" stroke-linejoin="round"/>
</symbol>



<symbol id="web-featured"  viewBox="0 0 24 24" fill="none" xmlns="http://www.w3.org/2000/svg">
<path d="M13 8.92226L7.92226 3.84453C6.79623 2.71849 4.97056 2.71849 3.84453 3.84453C2.71849 4.97056 2.71849 6.79623 3.84453 7.92226L16.0777 20.1555C17.2038 21.2815 19.0294 21.2815 20.1555 20.1555C21.2815 19.0294 21.2815 17.2038 20.1555 16.0777L17.0777 13" stroke="currentColor" stroke-width="1.5" stroke-linecap="round"/>
<path d="M6 10L10 6" stroke="currentColor" stroke-width="1.5" stroke-linecap="round"/>
<path d="M16.1 2.30719C16.261 1.8976 16.8385 1.8976 16.9994 2.30719L17.4298 3.40247C17.479 3.52752 17.5776 3.62651 17.7022 3.67583L18.7934 4.1078C19.2015 4.26934 19.2015 4.849 18.7934 5.01054L17.7022 5.44252C17.5776 5.49184 17.479 5.59082 17.4298 5.71587L16.9995 6.81115C16.8385 7.22074 16.261 7.22074 16.1 6.81116L15.6697 5.71587C15.6205 5.59082 15.5219 5.49184 15.3973 5.44252L14.3061 5.01054C13.898 4.849 13.898 4.26934 14.3061 4.1078L15.3973 3.67583C15.5219 3.62651 15.6205 3.52752 15.6697 3.40247L16.1 2.30719Z" stroke="currentColor"/>
<path d="M19.9672 9.12945C20.1281 8.71987 20.7057 8.71987 20.8666 9.12945L21.0235 9.5288C21.0727 9.65385 21.1713 9.75284 21.2959 9.80215L21.6937 9.95965C22.1018 10.1212 22.1018 10.7009 21.6937 10.8624L21.2959 11.0199C21.1713 11.0692 21.0727 11.1682 21.0235 11.2932L20.8666 11.6926C20.7057 12.1022 20.1281 12.1022 19.9672 11.6926L19.8103 11.2932C19.7611 11.1682 19.6625 11.0692 19.5379 11.0199L19.14 10.8624C18.732 10.7009 18.732 10.1212 19.14 9.95965L19.5379 9.80215C19.6625 9.75284 19.7611 9.65385 19.8103 9.5288L19.9672 9.12945Z" stroke="currentColor"/>
<path d="M5.1332 15.3072C5.29414 14.8976 5.87167 14.8976 6.03261 15.3072L6.18953 15.7065C6.23867 15.8316 6.33729 15.9306 6.46188 15.9799L6.85975 16.1374C7.26783 16.2989 7.26783 16.8786 6.85975 17.0401L6.46188 17.1976C6.33729 17.2469 6.23867 17.3459 6.18953 17.471L6.03261 17.8703C5.87167 18.2799 5.29414 18.2799 5.1332 17.8703L4.97628 17.471C4.92714 17.3459 4.82852 17.2469 4.70393 17.1976L4.30606 17.0401C3.89798 16.8786 3.89798 16.2989 4.30606 16.1374L4.70393 15.9799C4.82852 15.9306 4.92714 15.8316 4.97628 15.7065L5.1332 15.3072Z" stroke="currentColor"/>
</symbol>


<symbol id="web-search" viewBox="0 0 24 24" fill="none" xmlns="http://www.w3.org/2000/svg">
<path d="M15.7955 15.8111L21 21M18 10.5C18 14.6421 14.6421 18 10.5 18C6.35786 18 3 14.6421 3 10.5C3 6.35786 6.35786 3 10.5 3C14.6421 3 18 6.35786 18 10.5Z" stroke="currentColor" stroke-width="2" stroke-linecap="round" stroke-linejoin="round"/>
</symbol>

<symbol id="quatation-icon" xmlns="http://www.w3.org/2000/svg"  viewBox="0 0 24 24"><path fill="none" stroke="currentColor" stroke-linecap="round" stroke-linejoin="round" stroke-width="1.5" d="M16.25 15.5c-1.837-.794-2.5-1.5-2.5-3.5S15 8.75 17 8.75S20.25 10 20.25 12c0 3.5-1 4.75-5 7.25c1-1.75 1-2.25 1-3.75m-10 0c-1.837-.794-2.5-1.5-2.5-3.5S5 8.75 7 8.75S10.25 10 10.25 12c0 3.5-1 4.75-5 7.25c1-1.75 1-2.25 1-3.75"/></symbol>


<symbol id="telegram-icon" fill="currentColor" viewBox="0 0 32 32" version="1.1" xmlns="http://www.w3.org/2000/svg">
<path d="M22.122 10.040c0.006-0 0.014-0 0.022-0 0.209 0 0.403 0.065 0.562 0.177l-0.003-0.002c0.116 0.101 0.194 0.243 0.213 0.403l0 0.003c0.020 0.122 0.031 0.262 0.031 0.405 0 0.065-0.002 0.129-0.007 0.193l0-0.009c-0.225 2.369-1.201 8.114-1.697 10.766-0.21 1.123-0.623 1.499-1.023 1.535-0.869 0.081-1.529-0.574-2.371-1.126-1.318-0.865-2.063-1.403-3.342-2.246-1.479-0.973-0.52-1.51 0.322-2.384 0.221-0.23 4.052-3.715 4.127-4.031 0.004-0.019 0.006-0.040 0.006-0.062 0-0.078-0.029-0.149-0.076-0.203l0 0c-0.052-0.034-0.117-0.053-0.185-0.053-0.045 0-0.088 0.009-0.128 0.024l0.002-0.001q-0.198 0.045-6.316 4.174c-0.445 0.351-1.007 0.573-1.619 0.599l-0.006 0c-0.867-0.105-1.654-0.298-2.401-0.573l0.074 0.024c-0.938-0.306-1.683-0.467-1.619-0.985q0.051-0.404 1.114-0.827 6.548-2.853 8.733-3.761c1.607-0.853 3.47-1.555 5.429-2.010l0.157-0.031zM15.93 1.025c-8.302 0.020-15.025 6.755-15.025 15.060 0 8.317 6.742 15.060 15.060 15.060s15.060-6.742 15.060-15.060c0-8.305-6.723-15.040-15.023-15.060h-0.002q-0.035-0-0.070 0z"></path>
</symbol >


<symbol id="github-icon"  viewBox="0 0 20 20" version="1.1" xmlns="http://www.w3.org/2000/svg" xmlns:xlink="http://www.w3.org/1999/xlink">
    <g id="Page-1" stroke="none" stroke-width="1" fill="none" fill-rule="evenodd">
        <g id="Dribbble-Light-Preview" transform="translate(-140.000000, -7559.000000)" fill="currentColor">
            <g id="icons" transform="translate(56.000000, 160.000000)">
                <path d="M94,7399 C99.523,7399 104,7403.59 104,7409.253 C104,7413.782 101.138,7417.624 97.167,7418.981 C96.66,7419.082 96.48,7418.762 96.48,7418.489 C96.48,7418.151 96.492,7417.047 96.492,7415.675 C96.492,7414.719 96.172,7414.095 95.813,7413.777 C98.04,7413.523 100.38,7412.656 100.38,7408.718 C100.38,7407.598 99.992,7406.684 99.35,7405.966 C99.454,7405.707 99.797,7404.664 99.252,7403.252 C99.252,7403.252 98.414,7402.977 96.505,7404.303 C95.706,7404.076 94.85,7403.962 94,7403.958 C93.15,7403.962 92.295,7404.076 91.497,7404.303 C89.586,7402.977 88.746,7403.252 88.746,7403.252 C88.203,7404.664 88.546,7405.707 88.649,7405.966 C88.01,7406.684 87.619,7407.598 87.619,7408.718 C87.619,7412.646 89.954,7413.526 92.175,7413.785 C91.889,7414.041 91.63,7414.493 91.54,7415.156 C90.97,7415.418 89.522,7415.871 88.63,7414.304 C88.63,7414.304 88.101,7413.319 87.097,7413.247 C87.097,7413.247 86.122,7413.234 87.029,7413.87 C87.029,7413.87 87.684,7414.185 88.139,7415.37 C88.139,7415.37 88.726,7417.2 91.508,7416.58 C91.513,7417.437 91.522,7418.245 91.522,7418.489 C91.522,7418.76 91.338,7419.077 90.839,7418.982 C86.865,7417.627 84,7413.783 84,7409.253 C84,7403.59 88.478,7399 94,7399" id="github-[#142]">

</path>
            </g>
        </g>
    </g>
</symbol>

<symbol id="instagram-icon" viewBox="0 0 24 24" fill="none" xmlns="http://www.w3.org/2000/svg">
<path fill-rule="evenodd" clip-rule="evenodd" d="M12 18C15.3137 18 18 15.3137 18 12C18 8.68629 15.3137 6 12 6C8.68629 6 6 8.68629 6 12C6 15.3137 8.68629 18 12 18ZM12 16C14.2091 16 16 14.2091 16 12C16 9.79086 14.2091 8 12 8C9.79086 8 8 9.79086 8 12C8 14.2091 9.79086 16 12 16Z" fill="currentColor"/>
<path d="M18 5C17.4477 5 17 5.44772 17 6C17 6.55228 17.4477 7 18 7C18.5523 7 19 6.55228 19 6C19 5.44772 18.5523 5 18 5Z" fill="currentColor"/>
<path fill-rule="evenodd" clip-rule="evenodd" d="M1.65396 4.27606C1 5.55953 1 7.23969 1 10.6V13.4C1 16.7603 1 18.4405 1.65396 19.7239C2.2292 20.8529 3.14708 21.7708 4.27606 22.346C5.55953 23 7.23969 23 10.6 23H13.4C16.7603 23 18.4405 23 19.7239 22.346C20.8529 21.7708 21.7708 20.8529 22.346 19.7239C23 18.4405 23 16.7603 23 13.4V10.6C23 7.23969 23 5.55953 22.346 4.27606C21.7708 3.14708 20.8529 2.2292 19.7239 1.65396C18.4405 1 16.7603 1 13.4 1H10.6C7.23969 1 5.55953 1 4.27606 1.65396C3.14708 2.2292 2.2292 3.14708 1.65396 4.27606ZM13.4 3H10.6C8.88684 3 7.72225 3.00156 6.82208 3.0751C5.94524 3.14674 5.49684 3.27659 5.18404 3.43597C4.43139 3.81947 3.81947 4.43139 3.43597 5.18404C3.27659 5.49684 3.14674 5.94524 3.0751 6.82208C3.00156 7.72225 3 8.88684 3 10.6V13.4C3 15.1132 3.00156 16.2777 3.0751 17.1779C3.14674 18.0548 3.27659 18.5032 3.43597 18.816C3.81947 19.5686 4.43139 20.1805 5.18404 20.564C5.49684 20.7234 5.94524 20.8533 6.82208 20.9249C7.72225 20.9984 8.88684 21 10.6 21H13.4C15.1132 21 16.2777 20.9984 17.1779 20.9249C18.0548 20.8533 18.5032 20.7234 18.816 20.564C19.5686 20.1805 20.1805 19.5686 20.564 18.816C20.7234 18.5032 20.8533 18.0548 20.9249 17.1779C20.9984 16.2777 21 15.1132 21 13.4V10.6C21 8.88684 20.9984 7.72225 20.9249 6.82208C20.8533 5.94524 20.7234 5.49684 20.564 5.18404C20.1805 4.43139 19.5686 3.81947 18.816 3.43597C18.5032 3.27659 18.0548 3.14674 17.1779 3.0751C16.2777 3.00156 15.1132 3 13.4 3Z" fill="currentColor"/>
</symbol>


<symbol id="linked-icon" viewBox="0 0 20 20" version="1.1" xmlns="http://www.w3.org/2000/svg" xmlns:xlink="http://www.w3.org/1999/xlink">
    <g id="Page-1" stroke="none" stroke-width="1" fill="none" fill-rule="evenodd">
        <g id="Dribbble-Light-Preview" transform="translate(-180.000000, -7479.000000)" fill="currentColor">
            <g id="icons" transform="translate(56.000000, 160.000000)">
                <path d="M144,7339 L140,7339 L140,7332.001 C140,7330.081 139.153,7329.01 137.634,7329.01 C135.981,7329.01 135,7330.126 135,7332.001 L135,7339 L131,7339 L131,7326 L135,7326 L135,7327.462 C135,7327.462 136.255,7325.26 139.083,7325.26 C141.912,7325.26 144,7326.986 144,7330.558 L144,7339 L144,7339 Z M126.442,7323.921 C125.093,7323.921 124,7322.819 124,7321.46 C124,7320.102 125.093,7319 126.442,7319 C127.79,7319 128.883,7320.102 128.883,7321.46 C128.884,7322.819 127.79,7323.921 126.442,7323.921 L126.442,7323.921 Z M124,7339 L129,7339 L129,7326 L124,7326 L124,7339 Z" id="linkedin-[#161]">

</path>
            </g>
        </g>
    </g>
</symbol>


<symbol id="email-icon" viewBox="0 0 24 24" fill="none" xmlns="http://www.w3.org/2000/svg">
<path d="M4 7.00005L10.2 11.65C11.2667 12.45 12.7333 12.45 13.8 11.65L20 7" stroke="currentColor" stroke-width="2" stroke-linecap="round" stroke-linejoin="round"/>
<rect x="3" y="5" width="18" height="14" rx="2" stroke="currentColor" stroke-width="2" stroke-linecap="round"/>
</symbol>


<symbol id="phone-icon" viewBox="0 0 24 24" fill="none" xmlns="http://www.w3.org/2000/svg">
<path d="M16.1007 13.359L15.5719 12.8272H15.5719L16.1007 13.359ZM16.5562 12.9062L17.085 13.438H17.085L16.5562 12.9062ZM18.9728 12.5894L18.6146 13.2483L18.9728 12.5894ZM20.8833 13.628L20.5251 14.2869L20.8833 13.628ZM21.4217 16.883L21.9505 17.4148L21.4217 16.883ZM20.0011 18.2954L19.4723 17.7636L20.0011 18.2954ZM18.6763 18.9651L18.7459 19.7119H18.7459L18.6763 18.9651ZM8.81536 14.7266L9.34418 14.1947L8.81536 14.7266ZM4.00289 5.74561L3.2541 5.78816L3.2541 5.78816L4.00289 5.74561ZM10.4775 7.19738L11.0063 7.72922H11.0063L10.4775 7.19738ZM10.6342 4.54348L11.2346 4.09401L10.6342 4.54348ZM9.37326 2.85908L8.77286 3.30855V3.30855L9.37326 2.85908ZM6.26145 2.57483L6.79027 3.10667H6.79027L6.26145 2.57483ZM4.69185 4.13552L4.16303 3.60368H4.16303L4.69185 4.13552ZM12.0631 11.4972L12.5919 10.9654L12.0631 11.4972ZM16.6295 13.8909L17.085 13.438L16.0273 12.3743L15.5719 12.8272L16.6295 13.8909ZM18.6146 13.2483L20.5251 14.2869L21.2415 12.9691L19.331 11.9305L18.6146 13.2483ZM20.8929 16.3511L19.4723 17.7636L20.5299 18.8273L21.9505 17.4148L20.8929 16.3511ZM18.6067 18.2184C17.1568 18.3535 13.4056 18.2331 9.34418 14.1947L8.28654 15.2584C12.7186 19.6653 16.9369 19.8805 18.7459 19.7119L18.6067 18.2184ZM9.34418 14.1947C5.4728 10.3453 4.83151 7.10765 4.75168 5.70305L3.2541 5.78816C3.35456 7.55599 4.14863 11.144 8.28654 15.2584L9.34418 14.1947ZM10.7195 8.01441L11.0063 7.72922L9.9487 6.66555L9.66189 6.95073L10.7195 8.01441ZM11.2346 4.09401L9.97365 2.40961L8.77286 3.30855L10.0338 4.99296L11.2346 4.09401ZM5.73263 2.04299L4.16303 3.60368L5.22067 4.66736L6.79027 3.10667L5.73263 2.04299ZM10.1907 7.48257C9.66189 6.95073 9.66117 6.95144 9.66045 6.95216C9.66021 6.9524 9.65949 6.95313 9.659 6.95362C9.65802 6.95461 9.65702 6.95561 9.65601 6.95664C9.65398 6.95871 9.65188 6.96086 9.64972 6.9631C9.64539 6.96759 9.64081 6.97245 9.63599 6.97769C9.62634 6.98816 9.61575 7.00014 9.60441 7.01367C9.58174 7.04072 9.55605 7.07403 9.52905 7.11388C9.47492 7.19377 9.41594 7.2994 9.36589 7.43224C9.26376 7.70329 9.20901 8.0606 9.27765 8.50305C9.41189 9.36833 10.0078 10.5113 11.5343 12.0291L12.5919 10.9654C11.1634 9.54499 10.8231 8.68059 10.7599 8.27309C10.7298 8.07916 10.761 7.98371 10.7696 7.96111C10.7748 7.94713 10.7773 7.9457 10.7709 7.95525C10.7677 7.95992 10.7624 7.96723 10.7541 7.97708C10.75 7.98201 10.7451 7.98759 10.7394 7.99381C10.7365 7.99692 10.7335 8.00019 10.7301 8.00362C10.7285 8.00534 10.7268 8.00709 10.725 8.00889C10.7241 8.00979 10.7232 8.0107 10.7223 8.01162C10.7219 8.01208 10.7212 8.01278 10.7209 8.01301C10.7202 8.01371 10.7195 8.01441 10.1907 7.48257ZM11.5343 12.0291C13.0613 13.5474 14.2096 14.1383 15.0763 14.2713C15.5192 14.3392 15.8763 14.285 16.1472 14.1841C16.28 14.1346 16.3858 14.0763 16.4658 14.0227C16.5058 13.9959 16.5392 13.9704 16.5663 13.9479C16.5799 13.9367 16.5919 13.9262 16.6024 13.9166C16.6077 13.9118 16.6126 13.9073 16.6171 13.903C16.6194 13.9008 16.6215 13.8987 16.6236 13.8967C16.6246 13.8957 16.6256 13.8947 16.6266 13.8937C16.6271 13.8932 16.6279 13.8925 16.6281 13.8923C16.6288 13.8916 16.6295 13.8909 16.1007 13.359C15.5719 12.8272 15.5726 12.8265 15.5733 12.8258C15.5735 12.8256 15.5742 12.8249 15.5747 12.8244C15.5756 12.8235 15.5765 12.8226 15.5774 12.8217C15.5793 12.82 15.581 12.8183 15.5827 12.8166C15.5862 12.8133 15.5895 12.8103 15.5926 12.8074C15.5988 12.8018 15.6044 12.7969 15.6094 12.7929C15.6192 12.7847 15.6265 12.7795 15.631 12.7764C15.6403 12.7702 15.6384 12.773 15.6236 12.7785C15.5991 12.7876 15.501 12.8189 15.3038 12.7886C14.8905 12.7253 14.02 12.3853 12.5919 10.9654L11.5343 12.0291ZM9.97365 2.40961C8.95434 1.04802 6.94996 0.83257 5.73263 2.04299L6.79027 3.10667C7.32195 2.578 8.26623 2.63181 8.77286 3.30855L9.97365 2.40961ZM4.75168 5.70305C4.73201 5.35694 4.89075 4.9954 5.22067 4.66736L4.16303 3.60368C3.62571 4.13795 3.20329 4.89425 3.2541 5.78816L4.75168 5.70305ZM19.4723 17.7636C19.1975 18.0369 18.9029 18.1908 18.6067 18.2184L18.7459 19.7119C19.4805 19.6434 20.0824 19.2723 20.5299 18.8273L19.4723 17.7636ZM11.0063 7.72922C11.9908 6.7503 12.064 5.2019 11.2346 4.09401L10.0338 4.99295C10.4373 5.53193 10.3773 6.23938 9.9487 6.66555L11.0063 7.72922ZM20.5251 14.2869C21.3429 14.7315 21.4703 15.7769 20.8929 16.3511L21.9505 17.4148C23.2908 16.0821 22.8775 13.8584 21.2415 12.9691L20.5251 14.2869ZM17.085 13.438C17.469 13.0562 18.0871 12.9616 18.6146 13.2483L19.331 11.9305C18.2474 11.3414 16.9026 11.5041 16.0273 12.3743L17.085 13.438Z" fill="currentColor"/>
</symbol>
</svg>